<svg id="Layer_1" data-name="Layer 1" xmlns="http://www.w3.org/2000/svg" viewBox="0 0 350 350"><circle cx="174.8" cy="175.2" r="173.8" style="fill:#1e3b6e"/><path d="M107.69,145.94l21.47,38.73a1.43,1.43,0,0,0,2.49,0l13.23-23.87a25.35,25.35,0,0,0,1.35,3.36,1.36,1.36,0,0,0,.11.25l21.47,38.73a1.42,1.42,0,0,0,2.49,0l21.46-38.73a1,1,0,0,0,.11-.23,25.44,25.44,0,0,0-36.2-33,25.47,25.47,0,0,0-50.75,3.17,25.16,25.16,0,0,0,2.66,11.3C107.61,145.77,107.65,145.85,107.69,145.94Zm61.36-2.62a9.18,9.18,0,1,1-9.17,9.18A9.18,9.18,0,0,1,169.05,143.32ZM130.4,124.85a9.18,9.18,0,1,1-9.17,9.17A9.17,9.17,0,0,1,130.4,124.85Z" style="fill:#fff"/><path d="M200.72,141.93l21.47,38.73a1.42,1.42,0,0,0,2.49,0l21.47-38.73a1.89,1.89,0,0,0,.11-.25,25.16,25.16,0,0,0,2.66-11.3,25.49,25.49,0,1,0-51,0,25.19,25.19,0,0,0,2.66,11.3A2.72,2.72,0,0,0,200.72,141.93ZM232.61,130a9.18,9.18,0,1,1-9.18-9.18A9.18,9.18,0,0,1,232.61,130Z" style="fill:#fff"/><path d="M265.42,215.51l-24.15-35.88a5.68,5.68,0,1,0-9.43,6.35L250,213l-150.49-.38,18.86-28.15a5.68,5.68,0,1,0-9.44-6.33l-24.77,37a5.68,5.68,0,0,0,4.71,8.84l171.81.43h0a5.68,5.68,0,0,0,4.72-8.85Z" style="fill:#fff"/></svg>