<svg id="Layer_1" data-name="Layer 1" xmlns="http://www.w3.org/2000/svg" viewBox="0 0 350 350"><circle cx="175.4" cy="175.2" r="173.2" style="fill:#1e3b6e"/><path d="M180,79.29v7.33a3.12,3.12,0,0,0,6.24,0V79.29a10.61,10.61,0,1,0-6.24,0Zm3.12-14.5a4.37,4.37,0,1,1-4.37,4.37A4.37,4.37,0,0,1,183.07,64.79Z" style="fill:#fff"/><path d="M186.19,178.78v-7.33a3.12,3.12,0,0,0-6.24,0v7.33a10.6,10.6,0,1,0,6.24,0Zm-3.12,14.5a4.37,4.37,0,1,1,4.36-4.36A4.37,4.37,0,0,1,183.07,193.28Z" style="fill:#fff"/><path d="M133.32,132.16h7.33a3.12,3.12,0,1,0,0-6.24h-7.33a10.6,10.6,0,1,0,0,6.24Zm-10.13,1.24a4.37,4.37,0,1,1,4.36-4.36A4.37,4.37,0,0,1,123.19,133.4Z" style="fill:#fff"/><path d="M243,118.43a10.63,10.63,0,0,0-10.14,7.49h-7.33a3.12,3.12,0,1,0,0,6.24h7.33A10.61,10.61,0,1,0,243,118.43Zm0,15a4.37,4.37,0,1,1,4.36-4.36A4.37,4.37,0,0,1,243,133.4Z" style="fill:#fff"/><path d="M140.73,97.3a10.56,10.56,0,0,0,5-1.23l5.18,5.18a3.12,3.12,0,0,0,4.41-4.41l-5.18-5.18a10.6,10.6,0,1,0-9.37,5.64Zm-3.09-13.69a4.36,4.36,0,1,1,6.17,6.17,4.46,4.46,0,0,1-6.17,0,4.36,4.36,0,0,1,0-6.17Z" style="fill:#fff"/><path d="M225.41,160.77a10.6,10.6,0,0,0-5,1.23l-5.18-5.18a3.12,3.12,0,0,0-4.41,4.41l5.18,5.18a10.61,10.61,0,1,0,9.38-5.64Zm3.09,13.69a4.46,4.46,0,0,1-6.18,0,4.36,4.36,0,1,1,6.18,0Z" style="fill:#fff"/><path d="M213.06,102.16a3.09,3.09,0,0,0,2.2-.91l5.18-5.18A10.59,10.59,0,1,0,216,91.66l-5.18,5.18a3.12,3.12,0,0,0,2.21,5.32Zm9.26-18.55a4.37,4.37,0,0,1,6.18,6.17,4.47,4.47,0,0,1-6.18,0,4.36,4.36,0,0,1,0-6.17Z" style="fill:#fff"/><path d="M150.87,156.82,145.69,162a10.59,10.59,0,1,0,4.41,4.41l5.18-5.18a3.12,3.12,0,0,0-4.41-4.41Zm-7.06,17.64a4.45,4.45,0,0,1-6.17,0,4.37,4.37,0,1,1,6.17,0Z" style="fill:#fff"/><path d="M183.07,93.48A35.56,35.56,0,1,0,218.62,129,35.6,35.6,0,0,0,183.07,93.48Zm24.8,20H197a40.35,40.35,0,0,0-4.52-12.15A29.4,29.4,0,0,1,207.87,113.44Zm4.51,15.6a29,29,0,0,1-1.54,9.35H198.09a77.05,77.05,0,0,0,0-18.71h12.75A29,29,0,0,1,212.38,129ZM183.07,157.1c-2.47,0-5.66-4.6-7.6-12.47h15.19C188.72,152.5,185.54,157.1,183.07,157.1Zm-8.76-18.71a73.23,73.23,0,0,1,0-18.71h17.52a74.46,74.46,0,0,1,0,18.71ZM153.75,129a29.3,29.3,0,0,1,1.54-9.36h12.76a75.73,75.73,0,0,0,0,18.71H155.29A29.23,29.23,0,0,1,153.75,129ZM183.07,101c2.47,0,5.65,4.6,7.59,12.47H175.47C177.41,105.57,180.6,101,183.07,101Zm-9.44.32a40.62,40.62,0,0,0-4.52,12.15H158.26A29.44,29.44,0,0,1,173.63,101.29Zm-15.37,43.34h10.85a40.62,40.62,0,0,0,4.52,12.15A29.44,29.44,0,0,1,158.26,144.63Zm34.24,12.15A40.35,40.35,0,0,0,197,144.63h10.85A29.4,29.4,0,0,1,192.5,156.78Z" style="fill:#fff"/><path d="M264.74,210.07a16.37,16.37,0,0,0-20-3.5l-23.92,12.74a16.38,16.38,0,0,0-1.69-2.14,16.08,16.08,0,0,0-11.61-5H170.85a10.51,10.51,0,0,1-5.36-1.5c-4.64-2.75-12.88-6-25.78-6-21.69,0-38.35,13.72-45.3,20.56L90.3,221.1a4.71,4.71,0,0,0-6.66,0l-11.3,11.3A4.71,4.71,0,1,0,79,239.06l8-8,42.31,42.32-8,8A4.71,4.71,0,1,0,128,288l11.3-11.3a8.11,8.11,0,0,1,5.77-2.39h42.51A34.79,34.79,0,0,0,206.07,269l55-34.58a16.15,16.15,0,0,0,3.64-24.35Zm-5.5,11.64a6.74,6.74,0,0,1-3.13,4.73L201.06,261a25.36,25.36,0,0,1-13.51,3.89H145a17.45,17.45,0,0,0-8.64,2.28l-35.32-35.32c6-5.82,20.53-17.81,38.63-17.81,11.34,0,18,3,21,4.71a19.89,19.89,0,0,0,10.17,2.82h36.67a6.53,6.53,0,0,1,6.43,5.28c0,.13.05.26.09.38a7,7,0,0,1,.06,1.3c-.18,3.43-3.42,6.23-7.22,6.23H158.55a4.71,4.71,0,1,0,0,9.41h48.33c8.88,0,16.18-6.65,16.62-15.15,0-.17,0-.33,0-.49l25.59-13.64a7.07,7.07,0,0,1,8.52,1.31A6.74,6.74,0,0,1,259.24,221.71Z" style="fill:#fff"/></svg>