<svg id="Layer_1" data-name="Layer 1" xmlns="http://www.w3.org/2000/svg" viewBox="0 0 350 350"><circle cx="174.9" cy="174.9" r="172.9" style="fill:#1e3b6e"/><path d="M270,234.81l-15.75-15.75,12.53-5.37a4.29,4.29,0,0,0-.18-8l-59.94-22.48a4.3,4.3,0,0,0-5.53,5.53l22.48,59.94a4.3,4.3,0,0,0,3.92,2.79,4.34,4.34,0,0,0,4-2.61l5.37-12.52,15.75,15.74a4.29,4.29,0,0,0,6.07,0L270,240.88a4.29,4.29,0,0,0,0-6.07Z" style="fill:#fff"/><path d="M210.41,242.3a73.86,73.86,0,0,1-14.17,6c4.73-5.65,8.87-13.18,12.19-22.39a4.29,4.29,0,1,0-8.07-2.91c-6.47,17.94-16.25,28.65-26.15,28.65-12.49,0-23.65-16.19-29.39-39.49h53.36a4.3,4.3,0,0,0,0-8.59H143a155.81,155.81,0,0,1,0-53.23h62.35a150.14,150.14,0,0,1,2.3,24.86,4.3,4.3,0,0,0,4.29,4.25h0a4.3,4.3,0,0,0,4.25-4.34,160.86,160.86,0,0,0-2.14-24.77H244a74.26,74.26,0,0,1,3.85,39.14,4.29,4.29,0,1,0,8.47,1.43A84.75,84.75,0,0,0,257.49,177a83.28,83.28,0,1,0-160,32.41c.06.15.13.29.2.43a83.27,83.27,0,0,0,116.89,40,4.29,4.29,0,1,0-4.17-7.5ZM144.82,141.76c5.74-23.3,16.9-39.5,29.39-39.5s23.54,16.26,29.32,39.5Zm95.25,0H212.41c-3.52-15.15-9.25-27.75-16.4-36.25A75.1,75.1,0,0,1,240.07,141.76Zm-87.83-36.2c-7.13,8.49-12.8,21.06-16.28,36.2H108.35A75.08,75.08,0,0,1,152.24,105.56Zm-47.81,44.78h29.84a167.35,167.35,0,0,0,0,53.23H104.43a74.45,74.45,0,0,1,0-53.23Zm3.92,61.82H136c3.48,15.13,9.15,27.71,16.28,36.19A75,75,0,0,1,108.35,212.16Z" style="fill:#fff"/></svg>