<?xml version="1.0" encoding="utf-8"?>
<!-- Generator: Adobe Illustrator 26.0.2, SVG Export Plug-In . SVG Version: 6.00 Build 0)  -->
<svg version="1.1" id="Layer_1" xmlns="http://www.w3.org/2000/svg" xmlns:xlink="http://www.w3.org/1999/xlink" x="0px" y="0px"
	 viewBox="0 0 206 126" style="enable-background:new 0 0 206 126;" xml:space="preserve">
<style type="text/css">
	.st0{fill:#00A9E0;}
	.st1{fill:#231F20;}
	.st2{font-family:'HelveticaNeue-Light';}
	.st3{font-size:4.9846px;}
	.st4{fill:#00629B;}
</style>
<g>
	<path class="st0" d="M40,87.6c0.3,2.4-2.6,19.6,26.8,25.2c29,5.6,65.1-9.2,65.1-9.2h2.1c0,0-31.7,15.7-64.2,11.1
		s-30.8-23.3-31-27.1H40z"/>
	<path class="st0" d="M100.6,103.6c0,0-21,12.1-36.5,12.8s-28.9-4.8-24.9-28.8h-1.2c0,0-3.5,20.7,8.5,27c12,6.3,27.6,6.9,61.1-11
		H100.6z"/>
	<text transform="matrix(1 0 0 1 170.7121 88.0384)" class="st1 st2 st3"> </text>
	<path class="st4" d="M26.1,52.6v11.7H12.5V52.6H7v26.3h5.5V66.6h13.6l0,9.4c0,0.6,0.1,1.1,0.3,1.5c0.2,0.4,0.5,0.7,0.9,0.9
		c0.3,0.2,0.7,0.3,1.1,0.4c0.4,0.1,0.7,0.1,1.1,0.1c0.2,0,2.1,0,2.1,0V52.6H26.1z"/>
	<path class="st4" d="M133.5,78.9V52.6h-5.4l-10.8,19.5l-11-19.5h-5.4v26.3h2.8V58.5l11.5,20.4h1.4L128,58.7v17.4
		c0,0.6,0.1,1.1,0.4,1.5c0.2,0.4,0.5,0.7,0.9,0.9c0.3,0.2,0.7,0.3,1.1,0.4c0.4,0.1,0.7,0.1,1.1,0.1H133.5z"/>
	<path class="st4" d="M168,78.9L154.2,52h-1.6l-14.1,26.9h3.2l4.4-8.4h10l-1.4-2.7h-7.2l4.6-8.8l9.1,17.8c0.4,0.7,0.8,1.3,1.3,1.6
		c0.5,0.3,1.2,0.5,2.1,0.5H168z"/>
	<path class="st4" d="M196.5,52.6c-0.1,0-0.3,0-0.5,0c-0.2,0-0.4,0.1-0.6,0.2c-0.2,0.1-0.3,0.3-0.5,0.4c-0.1,0.2-0.2,0.4-0.2,0.7v17
		l-18.3-18.4H173v26.3h3.2V59.1l18.6,19.2c0.8,0.7,1.8,0.7,2.8,0.7h0.4V52.6H196.5z"/>
	<path class="st0" d="M59.7,42c0,0,6.4-3.6,11.2-5.7c11.8-5,22.2-8,31.8-9.8c7.7-1.5,31.3-5.1,50.1,0.7c0.3,4.4-0.9,9.4-3.3,14.7
		h7.7c1.9-4,3.2-7.8,3.8-11.3c2.9,1.6,5.6,3.5,7.9,5.8C171,38.6,173,42,173,42h3.4c0,0-1.4-3.3-4.6-6.5c-3-3-6.7-5.3-10.5-7.1
		c0.6-6.9-1.7-12.8-7.5-16.8c-13.9-9.7-41.5-4.1-66.9,9.5c-11.4,6.1-21.8,13.5-30.3,21H59.7z M138.5,23c-12.3-1-26.3,0.4-35.7,2.3
		c-11.4,2.3-22.1,5.6-32.1,10c-2.3,1-4.5,2.1-6.7,3.3C71,33.3,78.8,28.3,87.2,24c23.5-11.9,48.1-16.5,59.7-7.8
		c3.2,2.4,5,5.5,5.7,9.1C147,23.9,141.8,23.3,138.5,23z"/>
	<path class="st4" d="M52.4,52h-1.6L36.7,78.9h3.2L50.3,59l4.5,8.8h-7.2l-1.4,2.7h10l3.2,6.3c0.4,0.7,0.8,1.3,1.3,1.6
		c0.5,0.3,1.2,0.5,2.1,0.5h3.4L52.4,52z"/>
	<path class="st4" d="M87.8,76.8l-8.1-9.9h-2.8v12h-5.5V52.6h10.1c0,0,4.2-0.1,6.9,1.3c2.7,1.4,3.9,3.3,3.9,5.7
		c0,2.4-1.5,5.3-6.7,6.7L96,78.9h-4.2c0,0-0.9,0-1.9-0.3C88.9,78.2,87.8,76.8,87.8,76.8z M76.8,54.9v10h2.5c0,0,2.5,0,4.2-0.9
		c1.6-0.9,2.8-2.2,2.8-4.2c0-2-1.3-3.7-3-4.4c0,0-1-0.5-2.8-0.5C78.7,54.9,76.8,54.9,76.8,54.9z"/>
	<path class="st1" d="M84.6,95.1H84l-1.2-2.5h-3.6l-1.2,2.5h-0.6l3.4-7.3h0.3L84.6,95.1z M81.1,88.7l-1.6,3.4h3.1L81.1,88.7z"/>
	<path class="st1" d="M151.3,88.9c-0.9-0.5-1.7-0.7-2.6-0.7c-1.8,0-3.2,1.4-3.2,3.2c0,1.9,1.4,3.2,3.3,3.2c0.8,0,1.6-0.2,2.6-0.7
		v0.6c-0.8,0.4-1.7,0.7-2.6,0.7c-2.2,0-3.9-1.6-3.9-3.7c0-2.2,1.8-3.7,3.8-3.7c0.8,0,1.7,0.2,2.6,0.6V88.9z"/>
	<path class="st1" d="M156.5,95.2c-2.2,0-3.8-1.6-3.8-3.7s1.7-3.7,3.8-3.7c2.2,0,3.9,1.6,3.9,3.7S158.7,95.2,156.5,95.2z
		 M156.6,88.2c-1.8,0-3.3,1.4-3.3,3.2c0,1.8,1.4,3.2,3.3,3.2c1.8,0,3.2-1.4,3.2-3.2C159.8,89.6,158.4,88.2,156.6,88.2z"/>
	<path class="st1" d="M168.4,87.8h0.6v7.3h-0.6v-6.5h0l-2.8,3.4l-2.8-3.4h0v6.5h-0.6v-7.3h0.6l2.8,3.4L168.4,87.8z"/>
	<path class="st1" d="M173.2,87.8c1.7,0,2.4,0.9,2.4,1.9c0,0.9-0.5,2-2.4,2h-1.4v3.4h-0.6v-7.3H173.2z M171.7,91.2h1.4
		c1.4,0,1.9-0.7,1.9-1.5c0-0.8-0.5-1.5-1.8-1.5h-1.4V91.2z"/>
	<path class="st1" d="M182.4,95.1h-0.6l-1.2-2.5h-3.6l-1.2,2.5h-0.6l3.4-7.3h0.3L182.4,95.1z M178.9,88.7l-1.6,3.4h3.1L178.9,88.7z"
		/>
	<path class="st1" d="M190.4,95.1h-0.5l-5.5-6.4v6.4h-0.6v-7.3h0.5l5.5,6.4v-6.4h0.6V95.1z"/>
	<path class="st1" d="M195.2,91.2v3.9h-0.6v-3.9l-2.8-3.4h0.7l2.4,2.9l2.4-2.9h0.7L195.2,91.2z"/>
	<path class="st1" d="M92.5,93.1c0.1,0.2,0,0.4,0,0.5c-0.1,0.2-0.2,0.5-0.7,0.5c-0.5,0-0.7-0.3-0.7-0.7l0-0.7h-2v0.6
		c0,1.6,1.3,2.1,2.7,2.1c1.3,0,2.4-0.4,2.6-1.7c0.1-0.6,0-1,0-1.2c-0.3-1.5-3.1-2-3.3-2.9c0-0.1,0-0.3,0-0.4
		c0.1-0.2,0.2-0.5,0.7-0.5c0.4,0,0.7,0.3,0.7,0.7v0.5h1.8v-0.5c0-1.6-1.4-1.8-2.5-1.8c-1.3,0-2.4,0.4-2.6,1.6c-0.1,0.3-0.1,0.6,0,1
		C89.5,91.7,92.1,92.1,92.5,93.1"/>
	<path class="st1" d="M116.4,93c0.1,0.2,0,0.4,0,0.5c-0.1,0.2-0.2,0.5-0.7,0.5c-0.5,0-0.7-0.3-0.7-0.7v-0.7H113v0.6
		c0,1.6,1.3,2.1,2.6,2.1c1.3,0,2.4-0.4,2.6-1.7c0.1-0.6,0-1,0-1.2c-0.3-1.5-3.1-2-3.3-2.8c0-0.1,0-0.3,0-0.4c0-0.2,0.2-0.5,0.7-0.5
		c0.4,0,0.7,0.3,0.7,0.7v0.4h1.8v-0.5c0-1.6-1.4-1.8-2.4-1.8c-1.3,0-2.4,0.4-2.5,1.6c-0.1,0.3-0.1,0.6,0,1
		C113.4,91.7,116,92.1,116.4,93"/>
	<polygon class="st1" points="131.6,93.7 131.5,87.8 133.3,87.8 133.3,95.1 130.7,95.1 128.8,89 128.9,95.1 127.1,95.1 127.1,87.8 
		129.9,87.8 	"/>
	<polygon class="st1" points="98.6,88.3 97.6,95.1 95.6,95.1 97,87.8 100.2,87.8 101.6,95.1 99.6,95.1 	"/>
	<polygon class="st1" points="109.3,88.3 108,95.1 106.2,95.1 104.9,88.3 104.9,95.1 103,95.1 103.2,87.8 106.2,87.8 107.1,93.5 
		108,87.8 111,87.8 111.2,95.1 109.4,95.1 	"/>
	<path class="st1" d="M122.5,94c0.5,0,0.7-0.4,0.7-0.5c0-0.1,0-0.2,0-0.3v-5.4h1.9v5.3c0,0.1,0,0.4,0,0.5c-0.1,1.4-1.2,1.8-2.6,1.8
		c-1.3,0-2.4-0.4-2.6-1.8c0-0.1,0-0.4,0-0.5v-5.3h1.9v5.4c0,0.1,0,0.2,0,0.3C121.9,93.7,122,94,122.5,94"/>
	<path class="st1" d="M137.8,94c0.5,0,0.7-0.3,0.8-0.5c0-0.1,0-0.2,0-0.3v-1.1h-0.8V91h2.6v2c0,0.1,0,0.2,0,0.5
		c-0.1,1.3-1.3,1.8-2.6,1.8c-1.3,0-2.5-0.5-2.6-1.8c0-0.2,0-0.3,0-0.5v-3.1c0-0.1,0-0.4,0-0.5c0.2-1.4,1.3-1.8,2.6-1.8
		c1.3,0,2.4,0.4,2.6,1.8c0,0.2,0,0.5,0,0.5v0.2h-1.9v-0.4c0,0,0-0.2,0-0.3c0-0.2-0.2-0.5-0.7-0.5c-0.5,0-0.7,0.4-0.7,0.5
		c0,0.1,0,0.2,0,0.4v3.4c0,0.1,0,0.2,0,0.3C137.1,93.6,137.3,94,137.8,94"/>
</g>
</svg>
